P3
4 4 
255 
000 000 000 050 050 050 100 100 100 150 150 150
050 050 050 100 100 100 150 150 150 200 200 200
100 100 100 150 150 150 200 200 200 225 225 225
150 150 150 200 200 200 225 225 225 255 255 255